<?xml version="1.0" encoding="UTF-8" standalone="no"?><!DOCTYPE svg PUBLIC "-//W3C//DTD SVG 1.1//EN" "http://www.w3.org/Graphics/SVG/1.1/DTD/svg11.dtd"><svg width="100%" height="100%" viewBox="0 0 1850 650" version="1.1" xmlns="http://www.w3.org/2000/svg" xmlns:xlink="http://www.w3.org/1999/xlink" xml:space="preserve" xmlns:serif="http://www.serif.com/" style="fill-rule:evenodd;clip-rule:evenodd;stroke-linejoin:round;stroke-miterlimit:1.41421;"><g id="Group_1"><g><g><path d="M183.931,153.154c1.273,8.659 3.618,17.188 7.075,25.368c32.697,76.701 65.64,153.298 98.461,229.947l0.332,0l-56.481,139.793c-20.034,49.586 -76.557,73.579 -126.144,53.545c-49.586,-20.034 -73.579,-76.558 -53.545,-126.144l130.302,-322.509Z" style="fill:#e03232;"/><path d="M410.399,153.239l130.268,322.424c20.035,49.587 -3.958,106.11 -53.545,126.145c-49.586,20.034 -106.11,-3.959 -126.144,-53.546l-56.481,-139.793l0.402,0l98.329,-229.637l0.132,-0.31c3.441,-8.144 5.771,-16.649 7.039,-25.283Z" style="fill:#e03232;"/><path d="M297.183,385.841l-91.332,-213.296c-2.505,-5.85 -4.402,-11.931 -5.638,-18.074c-1.204,-5.987 -1.797,-12.112 -1.762,-18.204c0.034,-5.981 0.674,-11.999 1.903,-17.884c1.216,-5.829 3.02,-11.586 5.363,-17.111c2.474,-5.835 5.568,-11.461 9.197,-16.723c3.663,-5.311 7.898,-10.29 12.589,-14.801c4.779,-4.595 10.075,-8.745 15.741,-12.334c5.819,-3.687 12.095,-6.824 18.655,-9.325c11.321,-4.316 23.195,-6.66 35.29,-6.968c12.088,0.307 23.957,2.651 35.278,6.967c6.56,2.501 12.836,5.638 18.656,9.325c5.666,3.59 10.962,7.74 15.741,12.335c4.691,4.511 8.926,9.491 12.589,14.802c3.629,5.261 6.723,10.888 9.197,16.723c2.343,5.525 4.147,11.282 5.363,17.11c1.228,5.886 1.868,11.903 1.903,17.885c0.035,6.092 -0.558,12.216 -1.763,18.204c-1.236,6.142 -3.133,12.223 -5.638,18.073l-91.332,213.296Z" style="fill:#b70606;fill-rule:nonzero;"/></g><g transform="matrix(1.06622,0,0,1.06622,750.872,468.339)"><path d="M155.2,-47.04l-87.36,0l-15.68,47.04l-48.96,0l82.88,-233.28l53.12,0l80.64,233.28l-49.28,0l-15.36,-47.04Zm-13.12,-40l-30.4,-91.2l-30.4,91.2l60.8,0Z" style="fill:#b70606;fill-rule:nonzero;"/><path d="M301.76,0l-47.04,0l-60.48,-172.8l47.36,0l37.44,126.4l34.88,-126.4l47.36,0l-59.52,172.8Z" style="fill:#b70606;fill-rule:nonzero;"/><path d="M446.56,-175.68c27.143,0 48.249,8.159 63.317,24.477c15.069,16.319 22.603,39.091 22.603,68.318c0,27.733 -7.694,49.708 -23.082,65.923c-15.389,16.215 -36.228,24.322 -62.518,24.322c-26.717,0 -47.662,-8.201 -62.837,-24.602c-15.176,-16.402 -22.763,-38.708 -22.763,-66.918c0,-28.21 7.587,-50.516 22.762,-66.917c15.176,-16.402 36.015,-24.603 62.518,-24.603Zm0.32,36.48c-12.113,0 -21.888,5.09 -29.325,15.27c-7.437,10.18 -11.155,23.437 -11.155,39.77c0,16.333 3.718,29.59 11.155,39.77c7.437,10.18 17.212,15.27 29.325,15.27c11.9,0 21.622,-5.038 29.165,-15.113c7.543,-10.075 11.315,-23.172 11.315,-39.292c0,-16.967 -3.666,-30.487 -10.998,-40.563c-7.331,-10.075 -17.159,-15.112 -29.482,-15.112Z" style="fill:#b70606;fill-rule:nonzero;"/><path d="M549.76,-172.8l45.12,0l0,30.79c4.693,-10.737 11.307,-19.033 19.84,-24.887c8.533,-5.855 17.92,-8.783 28.16,-8.783c1.92,0 3.733,0.097 5.44,0.29l0,41.63c-5.333,-0.853 -10.027,-1.28 -14.08,-1.28c-26.24,0 -39.36,13.503 -39.36,40.51l0,94.53l-45.12,0l0,-172.8Z" style="fill:#b70606;fill-rule:nonzero;"/><path d="M731.2,-175.68c7.467,0 14.72,0.853 21.76,2.56c7.04,1.707 14.24,4.8 21.6,9.28c7.36,4.48 13.76,10.187 19.2,17.12c5.44,6.933 9.867,16.107 13.28,27.52c3.413,11.413 5.12,24.48 5.12,39.2c0,2.56 -0.107,5.12 -0.32,7.68l-115.52,0c0.213,6.66 0.8,12.407 1.76,17.24c0.96,4.833 2.667,9.56 5.12,14.18c2.453,4.62 6.08,8.165 10.88,10.635c4.8,2.47 10.827,3.705 18.08,3.705c17.067,0 28.48,-7.36 34.24,-22.08l44.16,0c-4.907,17.067 -14.613,30.667 -29.12,40.8c-14.507,10.133 -31.467,15.2 -50.88,15.2c-24.547,0 -43.91,-7.947 -58.09,-23.84c-14.18,-15.893 -21.27,-37.707 -21.27,-65.44c0,-29.013 7.147,-51.893 21.44,-68.64c14.293,-16.747 33.813,-25.12 58.56,-25.12Zm34.56,73.6c-1.067,-12.69 -4.533,-22.476 -10.4,-29.358c-5.867,-6.881 -14.027,-10.322 -24.48,-10.322c-19.627,0 -30.933,13.227 -33.92,39.68l68.8,0Z" style="fill:#b70606;fill-rule:nonzero;"/><path d="M894.6,7.36c-21.393,0 -38.882,-8.747 -52.465,-26.24c-13.583,-17.493 -20.375,-39.147 -20.375,-64.96c0,-26.027 6.953,-47.84 20.858,-65.44c13.905,-17.6 31.232,-26.4 51.982,-26.4c20.82,0 36.647,8.498 47.48,25.495l0,-83.095l45.12,0l0,233.28l-45.12,0l0,-17.785c-11.047,16.763 -26.873,25.145 -47.48,25.145Zm9.88,-145.28c-11.047,0 -20.075,5.037 -27.085,15.11c-7.01,10.073 -10.515,23.063 -10.515,38.97c0,15.693 3.505,28.523 10.515,38.49c7.01,9.967 16.038,14.95 27.085,14.95c11.047,0 20.075,-4.877 27.085,-14.632c7.01,-9.755 10.515,-22.48 10.515,-38.173c0,-16.33 -3.452,-29.532 -10.355,-39.605c-6.903,-10.073 -15.985,-15.11 -27.245,-15.11Z" style="fill:#b70606;fill-rule:nonzero;"/></g></g></g></svg>